<svg width="1140" height="342" viewBox="0 0 1140 342" fill="none" xmlns="http://www.w3.org/2000/svg">
<g clip-path="url(#clip0)">
<path d="M344 250C196.8 200 48.5 275 2.5 337.5L-56 410V-109H1163.5L1180.5 285.5C1128.9 214.7 929.5 208.207 821 250C712.5 291.793 491.2 300 344 250Z" fill="url(#paint0_linear)"/>
<path d="M255.082 155H246.789V126.082H215.25V155H207V92.4375H215.25V119.336H246.789V92.4375H255.082V155ZM287.781 155.859C281.479 155.859 276.352 153.797 272.398 149.672C268.445 145.518 266.469 139.975 266.469 133.043V131.582C266.469 126.97 267.342 122.859 269.09 119.25C270.866 115.612 273.329 112.776 276.48 110.742C279.66 108.68 283.098 107.648 286.793 107.648C292.837 107.648 297.535 109.639 300.887 113.621C304.238 117.603 305.914 123.303 305.914 130.723V134.031H274.418C274.533 138.615 275.865 142.324 278.414 145.16C280.992 147.967 284.258 149.371 288.211 149.371C291.018 149.371 293.396 148.798 295.344 147.652C297.292 146.507 298.996 144.988 300.457 143.098L305.312 146.879C301.417 152.866 295.573 155.859 287.781 155.859ZM286.793 114.18C283.585 114.18 280.892 115.354 278.715 117.703C276.538 120.023 275.191 123.289 274.676 127.5H297.965V126.898C297.736 122.859 296.647 119.737 294.699 117.531C292.751 115.297 290.116 114.18 286.793 114.18ZM329.762 143.355L340.59 108.508H349.098L330.406 162.176C327.513 169.91 322.915 173.777 316.613 173.777L315.109 173.648L312.145 173.09V166.645L314.293 166.816C316.986 166.816 319.077 166.272 320.566 165.184C322.085 164.095 323.331 162.104 324.305 159.211L326.066 154.484L309.48 108.508H318.16L329.762 143.355ZM351.332 167.461L346.82 164.367C349.513 160.615 350.917 156.747 351.031 152.766V145.59H358.809V151.82C358.809 154.714 358.092 157.607 356.66 160.5C355.257 163.393 353.48 165.714 351.332 167.461ZM400.789 155H392.539V92.4375H400.789V155ZM415.227 110.055L410.715 106.961C413.379 103.237 414.754 99.3125 414.84 95.1875V89H422.703V94.5859C422.674 97.4505 421.958 100.315 420.555 103.18C419.18 106.016 417.404 108.307 415.227 110.055ZM438.902 108.508L439.117 113.664C442.526 109.654 447.124 107.648 452.91 107.648C459.413 107.648 463.839 110.141 466.188 115.125C467.734 112.891 469.74 111.086 472.203 109.711C474.695 108.336 477.632 107.648 481.012 107.648C491.21 107.648 496.395 113.048 496.566 123.848V155H488.617V124.32C488.617 120.997 487.858 118.52 486.34 116.887C484.822 115.225 482.272 114.395 478.691 114.395C475.741 114.395 473.292 115.283 471.344 117.059C469.396 118.806 468.264 121.169 467.949 124.148V155H459.957V124.535C459.957 117.775 456.648 114.395 450.031 114.395C444.818 114.395 441.251 116.615 439.332 121.055V155H431.383V108.508H438.902ZM539.922 130.508V155H531.672V92.4375H554.746C561.592 92.4375 566.949 94.1849 570.816 97.6797C574.712 101.174 576.66 105.801 576.66 111.559C576.66 117.632 574.755 122.315 570.945 125.609C567.164 128.875 561.736 130.508 554.66 130.508H539.922ZM539.922 123.762H554.746C559.158 123.762 562.538 122.73 564.887 120.668C567.236 118.577 568.41 115.569 568.41 111.645C568.41 107.921 567.236 104.941 564.887 102.707C562.538 100.473 559.315 99.3125 555.219 99.2266H539.922V123.762ZM614.129 155C613.671 154.083 613.298 152.451 613.012 150.102C609.316 153.94 604.905 155.859 599.777 155.859C595.194 155.859 591.427 154.57 588.477 151.992C585.555 149.385 584.094 146.091 584.094 142.109C584.094 137.268 585.927 133.516 589.594 130.852C593.289 128.159 598.474 126.812 605.148 126.812H612.883V123.16C612.883 120.382 612.052 118.176 610.391 116.543C608.729 114.882 606.28 114.051 603.043 114.051C600.207 114.051 597.829 114.767 595.91 116.199C593.991 117.632 593.031 119.365 593.031 121.398H585.039C585.039 119.078 585.855 116.844 587.488 114.695C589.15 112.518 591.384 110.799 594.191 109.539C597.027 108.279 600.135 107.648 603.516 107.648C608.872 107.648 613.069 108.995 616.105 111.688C619.142 114.352 620.717 118.033 620.832 122.73V144.129C620.832 148.397 621.376 151.792 622.465 154.312V155H614.129ZM600.938 148.941C603.43 148.941 605.793 148.297 608.027 147.008C610.262 145.719 611.88 144.043 612.883 141.98V132.441H606.652C596.913 132.441 592.043 135.292 592.043 140.992C592.043 143.484 592.874 145.432 594.535 146.836C596.197 148.24 598.331 148.941 600.938 148.941ZM640.812 108.508L641.07 114.352C644.622 109.883 649.263 107.648 654.992 107.648C664.818 107.648 669.773 113.191 669.859 124.277V155H661.91V124.234C661.882 120.883 661.108 118.405 659.59 116.801C658.1 115.197 655.766 114.395 652.586 114.395C650.008 114.395 647.745 115.082 645.797 116.457C643.849 117.832 642.331 119.637 641.242 121.871V155H633.293V108.508H640.812ZM710.551 155C710.092 154.083 709.72 152.451 709.434 150.102C705.738 153.94 701.327 155.859 696.199 155.859C691.616 155.859 687.849 154.57 684.898 151.992C681.977 149.385 680.516 146.091 680.516 142.109C680.516 137.268 682.349 133.516 686.016 130.852C689.711 128.159 694.896 126.812 701.57 126.812H709.305V123.16C709.305 120.382 708.474 118.176 706.812 116.543C705.151 114.882 702.702 114.051 699.465 114.051C696.629 114.051 694.251 114.767 692.332 116.199C690.413 117.632 689.453 119.365 689.453 121.398H681.461C681.461 119.078 682.277 116.844 683.91 114.695C685.572 112.518 687.806 110.799 690.613 109.539C693.449 108.279 696.557 107.648 699.938 107.648C705.294 107.648 709.491 108.995 712.527 111.688C715.564 114.352 717.139 118.033 717.254 122.73V144.129C717.254 148.397 717.798 151.792 718.887 154.312V155H710.551ZM697.359 148.941C699.852 148.941 702.215 148.297 704.449 147.008C706.684 145.719 708.302 144.043 709.305 141.98V132.441H703.074C693.335 132.441 688.465 135.292 688.465 140.992C688.465 143.484 689.296 145.432 690.957 146.836C692.618 148.24 694.753 148.941 697.359 148.941ZM727.824 131.367C727.824 124.12 729.5 118.362 732.852 114.094C736.203 109.797 740.643 107.648 746.172 107.648C751.844 107.648 756.27 109.654 759.449 113.664L759.836 108.508H767.098V153.883C767.098 159.898 765.307 164.639 761.727 168.105C758.174 171.572 753.391 173.305 747.375 173.305C744.023 173.305 740.743 172.589 737.535 171.156C734.327 169.724 731.878 167.762 730.188 165.27L734.312 160.5C737.721 164.711 741.889 166.816 746.816 166.816C750.684 166.816 753.691 165.728 755.84 163.551C758.017 161.374 759.105 158.309 759.105 154.355V150.359C755.926 154.026 751.586 155.859 746.086 155.859C740.643 155.859 736.232 153.668 732.852 149.285C729.5 144.902 727.824 138.93 727.824 131.367ZM735.816 132.27C735.816 137.512 736.891 141.637 739.039 144.645C741.188 147.624 744.195 149.113 748.062 149.113C753.076 149.113 756.757 146.836 759.105 142.281V121.055C756.671 116.615 753.018 114.395 748.148 114.395C744.281 114.395 741.259 115.898 739.082 118.906C736.905 121.914 735.816 126.368 735.816 132.27ZM787.766 155H779.816V108.508H787.766V155ZM779.172 96.1758C779.172 94.8867 779.559 93.7982 780.332 92.9102C781.134 92.0221 782.309 91.5781 783.855 91.5781C785.402 91.5781 786.577 92.0221 787.379 92.9102C788.181 93.7982 788.582 94.8867 788.582 96.1758C788.582 97.4648 788.181 98.5391 787.379 99.3984C786.577 100.258 785.402 100.688 783.855 100.688C782.309 100.688 781.134 100.258 780.332 99.3984C779.559 98.5391 779.172 97.4648 779.172 96.1758ZM798.422 131.324C798.422 126.77 799.31 122.673 801.086 119.035C802.891 115.397 805.383 112.59 808.562 110.613C811.771 108.637 815.423 107.648 819.52 107.648C825.85 107.648 830.964 109.84 834.859 114.223C838.784 118.605 840.746 124.435 840.746 131.711V132.27C840.746 136.796 839.872 140.863 838.125 144.473C836.406 148.053 833.928 150.846 830.691 152.852C827.483 154.857 823.788 155.859 819.605 155.859C813.303 155.859 808.19 153.668 804.266 149.285C800.37 144.902 798.422 139.102 798.422 131.883V131.324ZM806.414 132.27C806.414 137.426 807.603 141.565 809.98 144.688C812.387 147.81 815.595 149.371 819.605 149.371C823.645 149.371 826.853 147.796 829.23 144.645C831.608 141.465 832.797 137.025 832.797 131.324C832.797 126.225 831.579 122.1 829.145 118.949C826.738 115.77 823.53 114.18 819.52 114.18C815.595 114.18 812.43 115.741 810.023 118.863C807.617 121.986 806.414 126.454 806.414 132.27ZM861.5 97.25V108.508H870.18V114.652H861.5V143.484C861.5 145.346 861.887 146.75 862.66 147.695C863.434 148.612 864.751 149.07 866.613 149.07C867.53 149.07 868.79 148.898 870.395 148.555V155C868.303 155.573 866.27 155.859 864.293 155.859C860.741 155.859 858.062 154.785 856.258 152.637C854.453 150.488 853.551 147.438 853.551 143.484V114.652H845.086V108.508H853.551V97.25H861.5ZM888.141 155H880.191V108.508H888.141V155ZM879.547 96.1758C879.547 94.8867 879.934 93.7982 880.707 92.9102C881.509 92.0221 882.684 91.5781 884.23 91.5781C885.777 91.5781 886.952 92.0221 887.754 92.9102C888.556 93.7982 888.957 94.8867 888.957 96.1758C888.957 97.4648 888.556 98.5391 887.754 99.3984C886.952 100.258 885.777 100.688 884.23 100.688C882.684 100.688 881.509 100.258 880.707 99.3984C879.934 98.5391 879.547 97.4648 879.547 96.1758ZM927.973 142.668C927.973 140.52 927.156 138.858 925.523 137.684C923.919 136.48 921.098 135.449 917.059 134.59C913.048 133.73 909.854 132.699 907.477 131.496C905.128 130.293 903.38 128.861 902.234 127.199C901.117 125.538 900.559 123.561 900.559 121.27C900.559 117.46 902.163 114.237 905.371 111.602C908.608 108.966 912.733 107.648 917.746 107.648C923.017 107.648 927.285 109.009 930.551 111.73C933.845 114.452 935.492 117.932 935.492 122.172H927.5C927.5 119.995 926.569 118.118 924.707 116.543C922.874 114.967 920.553 114.18 917.746 114.18C914.853 114.18 912.59 114.81 910.957 116.07C909.324 117.331 908.508 118.978 908.508 121.012C908.508 122.931 909.267 124.378 910.785 125.352C912.303 126.326 915.039 127.257 918.992 128.145C922.974 129.033 926.197 130.092 928.66 131.324C931.124 132.556 932.943 134.046 934.117 135.793C935.32 137.512 935.922 139.617 935.922 142.109C935.922 146.263 934.26 149.6 930.938 152.121C927.615 154.613 923.303 155.859 918.004 155.859C914.28 155.859 910.986 155.201 908.121 153.883C905.257 152.565 903.008 150.732 901.375 148.383C899.771 146.005 898.969 143.441 898.969 140.691H906.918C907.061 143.355 908.121 145.475 910.098 147.051C912.103 148.598 914.738 149.371 918.004 149.371C921.012 149.371 923.418 148.77 925.223 147.566C927.056 146.335 927.973 144.702 927.973 142.668Z" fill="white"/>
</g>
<defs>
<linearGradient id="paint0_linear" x1="1214" y1="2.99995" x2="-41" y2="423" gradientUnits="userSpaceOnUse">
<stop stop-color="#6A4C91"/>
<stop offset="1" stop-color="#6DA2BF"/>
</linearGradient>
<clipPath id="clip0">
<rect width="1140" height="342" fill="white"/>
</clipPath>
</defs>
</svg>
